<svg xmlns="http://www.w3.org/2000/svg" viewBox="0 0 640 640"><!--!Font Awesome Pro 7.2.0 by @fontawesome - https://fontawesome.com License - https://fontawesome.com/license (Commercial License) Copyright 2026 Fonticons, Inc.--><path fill="currentColor" d="M295.3 511.6C342.2 518.1 389.2 506.3 430.4 473.6C470.6 441.8 494.2 395.9 500.6 349C506.2 301 492.7 251.8 460.8 211.6C448.4 196 434.7 183.2 419.6 173.4C370.1 110.9 305.2 111.4 305.2 111.4C332.7 118.7 362.9 138.3 383.3 155C345.6 139.5 302.9 131.5 260.7 128.6C217.3 126.6 200.3 125.6 153.5 135.4C172.6 136.6 192 135.8 213.1 137.3C289.2 144 376.2 155.1 430.3 203C430.3 203 399.6 205.5 361.6 210.3C331.1 167.2 307.3 180.7 259.5 173C281.6 191.8 326.9 168.7 346.2 211.5C329.7 213.6 312.2 216.7 294.8 217.7C234.1 225.9 177.9 203.1 177.9 203.1C217.8 226 271.1 229.2 297.6 228.2C300.7 227.5 304.7 228 309.8 227.6C299.5 237.5 275.4 262.1 252.6 274.6C224.5 289.6 203.1 299.3 168.7 290.2C206.8 310.9 264.3 287.1 303.4 247.1C304.7 253.3 305.1 267.5 288.7 285.9C288.7 285.9 315.5 264.7 307.8 243.6C312.5 238.1 317.2 232.5 321.9 227C358.4 227.2 415.3 225.7 415.3 225.7C388.3 230.7 343.4 277.1 297.2 308.2C250.2 338.2 213.5 330.9 213.5 330.9C223.7 339.2 239.2 335.9 266.2 331C276.4 330.1 291.6 321.8 310.1 310.8C306.9 320.6 293 344.3 268.5 363.7C268.5 363.7 307.5 341.9 323 304.1C342.7 292.2 362.5 278.3 379 267.1C375.8 276.9 368.6 295.3 349.8 317.4C349.8 317.4 381.5 288.6 393.2 257.6C397.7 254.1 402.1 250.5 405.5 247.9C424.3 234.8 442.7 232.9 455.8 233.5C478 268.5 487.7 308.1 482.1 347C478.1 390.1 456.1 431.1 419.3 460.3C382.5 489.5 337.5 501.4 293.5 496.3C250.4 492.3 209.4 470.3 180.2 433.5C167 416.8 158.8 399.6 154 379.7C148 360.8 145.6 339.2 144.1 316.8C134.8 433.4 204.7 494.2 294.9 511.8zM242.7 153.8C237.3 165.3 237.5 172.4 237.5 172.4C237.5 172.4 244.6 172.2 255.6 165.4C271.9 156.2 251.7 137.7 242.8 153.8zM179.1 142.4C175.3 149.1 176.8 153.3 176.8 153.3C176.8 153.3 179.9 152.6 186.4 149.4C195.1 144.4 184.1 134.9 179.1 142.5zM198.2 143.6C195.5 149.4 197 153.5 197 153.5C197 153.5 200.1 152.8 205.5 150.4C215.3 144.4 204.2 135.1 198.2 143.5zM221 147.3C216.1 154.9 216.5 159.9 216.5 159.9C216.5 159.9 222.5 160.6 229.2 155.3C241.2 147.7 226.4 135.8 221 147.3zM219.6 115.7C215 112.1 210.9 111.6 210.9 111.6C210.9 111.6 210.4 115.7 212.9 121C217.8 131.6 228 121.8 219.6 115.7zM241.4 111.1C234.7 107.3 230.8 106.8 230.8 106.8C230.8 106.8 229.2 111.7 233.4 119.2C238.2 130 251.7 119.3 241.4 111.1zM270.1 108.3C261.7 102.3 254.5 102.4 254.5 102.4C254.5 102.4 253.8 108.4 257.8 118C266.2 133.2 283.1 117.9 270.1 108.3zM329.7 101.1C324.2 96.4 320.4 94 320.4 94C320.4 94 318.8 98.9 320.2 105.1C321.9 116.4 336.8 110 329.7 101.1zM354.3 107C351 100.6 347.2 98.1 347.2 98.1C347.2 98.1 345 101.9 345.2 109C344.9 120 359.7 115.7 354.6 107zM380.7 115.1C376.8 105.5 371 102.8 371 102.8C371 102.8 367.4 107.4 367.1 118.6C367.5 132.8 388.4 127.1 380.7 115.1zM405.3 130.2C400.2 121.5 394.5 118.8 394.5 118.8C394.5 118.8 390.9 123.4 390.6 134.6C390.8 150.7 413.7 145.3 405.3 130.2zM306 158.2C298.2 155.3 293.1 155.7 293.1 155.7C293.1 155.7 293.5 160.8 298.8 167.6C306.8 177.6 317.5 163.6 306 158.2zM281.5 159.4C276.1 154.7 270 154 270 154C270 154 269.5 158.1 272.6 166.4C276.3 178 291.7 167.6 281.5 159.3zM306.9 193.7C300 201 299.3 207 299.3 207C299.3 207 304.2 208.6 313.8 204.6C328.6 200.3 316.4 182.7 307 193.7zM285.8 201.4C278.9 199.6 274.7 201.2 274.7 201.2C274.7 201.2 275.1 206.3 280.7 211C289.7 220.1 298.7 204 285.9 201.5zM166.7 188.6C156.9 185.4 151.6 187.8 151.6 187.8C151.6 187.8 152.9 194 160.2 200.9C171.2 210.3 181.5 191.2 166.7 188.5zM188.1 188C183.5 184.4 179.4 183.9 179.4 183.9C179.4 183.9 178.9 188 181.4 193.3C185.4 202.8 196.5 194.1 188.1 188zM216.4 196.3C209.1 189.4 204.2 187.8 204.2 187.8C204.2 187.8 202.6 192.7 204.5 202C206.9 216.5 224.3 206.4 216.4 196.3zM245.3 200.7C238 193.8 233.1 192.2 233.1 192.2C233.1 192.2 231.5 197.1 233.4 206.4C235.8 220.9 253.2 210.7 245.3 200.7zM193 224.1C190.1 231.9 190.7 235 190.7 235C190.7 235 194.8 235.5 201.4 230.2C211.2 224.2 197.3 213.5 193 224.1zM214.6 230.7C211.4 240.5 211.9 245.6 211.9 245.6C211.9 245.6 217.9 246.3 225.7 240.1C237.9 230.4 220.2 217.2 214.6 230.7zM220.4 345.9C217.5 353.7 219 357.9 219 357.9C219 357.9 223.1 358.4 229.7 353.1C238.6 345.9 224.6 335.1 220.4 345.9zM243 351.5C243.6 363.7 246.9 370.2 246.9 370.2C246.9 370.2 253.3 366.9 259.6 356.4C269.8 339.4 243.1 333.3 243 351.5zM350 294C344.4 298.4 342 302.1 342 302.1C342 302.1 345.8 304.6 352.9 304.4C365.1 303.8 359.9 288 350.1 293.9zM303 349.3C306.3 355.7 310.1 358.2 310.1 358.2C310.1 358.2 312.6 354.4 313.5 346.5C312.9 334.3 297.1 339.5 303 349.3zM332.8 258.6C321.9 256.3 315.4 259.6 315.4 259.6C315.4 259.6 318.7 266 327.1 272.1C341.1 282.9 349.9 259.5 332.8 258.6zM304 279.6C305.3 285.8 308.2 287.2 308.2 287.2C308.2 287.2 310.5 285.4 312.3 278.5C314.3 269.6 301.2 269.1 304 279.6zM221.5 317.6C216 312.9 210.9 313.3 210.9 313.3C210.9 313.3 210.4 317.4 213.7 323.8C218.5 334.6 230 323.6 221.5 317.6zM265.1 308.5C259.3 305.8 254.2 306.2 254.2 306.2C254.2 306.2 254.6 311.3 259 316.9C267.2 325 276.8 311.9 265.1 308.5zM265.7 286.3C266.1 291.4 268.8 294.8 268.8 294.8C268.8 294.8 271.1 293 273.7 287.2C277.8 278.5 263.8 276.9 265.7 286.3zM228.4 310.3C230.1 321.6 234.5 327.2 234.5 327.2C234.5 327.2 240.9 323.9 245.5 311.2C253.6 294 225.6 290.7 228.4 310.3zM177.3 305.4C171.5 311.8 170.8 317.8 170.8 317.8C170.8 317.8 175.7 319.4 184.1 316.3C198.9 312 187.6 295.5 177.3 305.4zM190 275.4C182.4 270.5 176.2 271.8 176.2 271.8C176.2 271.8 176.6 276.9 182.8 284.8C190.6 296.7 203.5 281 190 275.4zM277.6 237C270.7 235.2 265.4 237.6 265.4 237.6C265.4 237.6 267 241.8 272.5 246.5C281.5 255.6 289.4 240.4 277.7 237zM252.6 251.3C242.2 245 235.1 245.2 235.1 245.2C235.1 245.2 234.2 253.2 240.1 263C249.3 279.3 267.6 261.2 252.6 251.3zM222.6 266C212.2 259.7 205.1 259.9 205.1 259.9C205.1 259.9 205.3 267 210.1 277.7C220.3 295.2 239.6 276.2 222.6 266zM222.6 266zM473.3 408.5C473.2 407.7 473.5 407 473.4 406.2C473.1 404 474 405.1 472 400C471.6 399.2 471.2 398.3 470.3 397.9C470.2 397.3 470.1 396.8 469.9 396.2C469.7 395.7 469.8 395.1 469.7 394.5C469.5 393.8 470 393.1 469.8 392.4C469.6 391.4 469.7 390.3 469.2 389.4C469.2 389.3 467.7 386.2 467.4 385.8C467.4 385.7 461.4 379.1 460.4 377.5C459.2 375.7 455.7 373.1 454.6 370.3C453.5 367.4 451.1 365.5 449.3 363.4C449 363.1 447.4 360.9 446.1 360.9C441.6 360.6 442.1 361.1 440.2 360.7C438.4 360.3 434.1 359.6 432.4 360.3C431.8 360.6 431.1 360.8 430.5 361.2C430.1 361.6 430 362.2 429.5 362.5C429 362.8 428.5 362.4 428 362.3C427.1 361.9 426 362 425 361.8C424.3 361.7 423.6 361.5 422.9 361.6C421.5 362.4 422.1 363.4 421.9 364.5C421.7 365 421 364.8 420.6 365C420.3 365.4 420.3 366.1 419.8 366.3C419.2 366.6 418.6 366.6 418 366.9C417.8 367.3 417.8 367.9 417.4 368.2C416.9 368.6 416.1 368.4 415.6 368.9C415.2 369.3 415 369.8 414.7 370.3C413.6 372.3 414.3 372.5 414.8 373.2C415.4 373.9 415.4 374.9 415.9 375.7C416.1 376.1 416.5 376.5 416.3 377C416.1 377.4 415.7 377.1 415.4 377C414.1 376.4 412.7 376.5 411.3 376.5C410.1 376.5 408.9 377 407.7 376.6C406.8 376.2 405.8 376.7 404.9 376.7C404.4 376.7 403.9 376.8 403.4 376.9C402.8 376.9 402.2 376.5 401.6 376.6C400.6 376.8 399.4 377 398.5 376.4C397.7 376.1 396.8 376.1 395.9 376.1C395.2 376.1 394.5 375.6 393.8 375.5C393.2 375.4 392.5 375.6 392 375.3C391.2 374.9 390.4 374.6 389.5 374.3C389 374.1 388.4 374.5 387.9 374.4C387.2 374.2 386.8 373.3 386 373.3C385.6 373.2 385.4 373.6 385.2 373.7C384.6 373.7 384.3 373 383.7 372.9C383.2 372.7 382.5 372.9 382.1 372.5C379.5 370.5 380.4 371 379.1 370.5C378.6 370.3 378.4 369.7 377.9 369.6C377.4 369.5 377.1 369.2 376.7 368.9C367.3 364.5 365.2 363.7 361.8 361.6C361.4 361.3 360.8 361.3 360.4 361C359.8 360.6 359.2 360 358.4 360C355.8 359.7 354.5 358.9 353.1 358C352 357.2 351.6 358.2 349 356.6C347.8 355.8 345 351.3 344.2 350.1C342.4 347.6 342.8 347.4 341.3 347.1C340.7 347 340.1 347.2 339.5 347.1C339.3 347 306.5 249.9 270.2 143.1C269.3 143.1 268.3 143.1 267.4 143.1C274 162.6 334.5 340.9 336 347.7C335.6 348.7 334.1 348.7 333.8 349.8C333.7 350.5 334.2 351.2 334.5 351.8C334.6 352.2 334.5 352.7 334.5 353.1C334.6 353.3 334.7 353.5 334.9 353.7C335.4 354.8 335.1 356.1 335.4 357.3C335.9 360.4 335.5 359.5 337.5 361.6C338.9 363.1 340.3 362.6 340.1 364.8C340 365.8 337.9 365.7 337.7 367.1C337.5 367.6 337.7 368.1 337.7 368.6C337.5 369 337.2 369.3 337.1 369.7C337.1 370.2 337.3 370.7 337.3 371.2C337.3 371.8 337 372.2 337 372.8C337 373.4 337.2 373.9 337.1 374.5C337 375.1 337 375.8 337.1 376.4C337.4 377 337.8 377.6 338.2 378.1C338.7 378.9 339.8 378.9 340.3 379.7C340.6 381.2 337.6 397.5 335.7 408.7C335.4 410.3 335.3 412.3 334.7 413.8C334.3 413.8 333.9 413.8 333.6 413.7C332.4 413.3 331.1 413.1 329.9 412.6C329.5 412.4 329 412.4 328.6 412.4C328 412.3 327.4 412 326.8 411.8C326.2 411.7 325.6 411.7 325.1 411.5C324.6 411.3 324 411.4 323.5 411.3C322.8 411.2 322.1 410.8 321.3 410.8C320.3 410.8 319.4 410.2 318.4 410.3C317.4 410.2 316.3 410.1 315.3 410C314.5 410 314 409.3 313.2 409.4C311.8 409.6 307.7 407.9 306 407.5C301.1 406.3 295.7 405.9 290.6 406C289.9 406 289.3 405.8 288.6 406C287.5 406.2 286.9 405.4 286 405C285 404.5 284 404.7 283 404.5C283 404.5 278.3 403.1 272.6 401.5C267.6 400.1 263.3 399.7 256.7 397C254.1 395.9 251.2 395.1 248.7 393.9C248.1 393.6 247.4 393.7 246.8 393.4C245.8 392.9 244.6 392.8 243.7 392.2C243.5 392.1 243.4 391.9 243.3 391.7C245.8 390.5 244.9 392.1 248 393.5C248.4 393 248.8 392.4 249.2 391.9C246.8 390.8 244.7 388.9 241.9 387.2C241.5 387 241.4 386.5 241 386.3C240.7 386.1 240.4 386 240.3 385.7C239.7 384.5 238.9 384.4 237.7 384.3C237.4 384.8 236.7 384.9 236.3 384.5C235.8 384.1 235.6 383.4 235.3 382.8C235.1 382.5 234.8 382.3 234.6 382C234.4 381.7 234.2 381.3 234 381C233.5 380.5 232.7 380.2 232.3 379.6C232 379.2 231.7 378.7 231.3 378.4C230.7 378.1 230.1 377.9 229.7 377.4C229.4 376.9 229.4 376.2 229.1 375.7C228.8 375 228.3 374.5 228.1 373.8C227.8 373 226.6 370.8 226 370.3C225.3 370.3 224.7 370.5 224 370.6C222 371 222 376.8 222.3 378.7C222.4 379.5 222.7 380.3 222.8 381.1C222.9 382 223.2 382.9 223.4 383.9C223.5 384.6 223.5 385.2 223.7 385.9C225.1 390.6 225.5 395.2 227.8 401.6C228.4 403.3 228.6 405.2 229.4 406.8C229.9 407.9 230.1 409.1 230.8 410.1C231.2 410.5 231.4 411 231.8 411.4C232.7 411.6 233.7 411.4 234.5 411.1C235.7 410.6 237 410.4 238.1 409.8C239.5 409.1 241 408.6 242.2 407.6C243.9 406.3 244.5 407.6 246.7 408.4C247.6 408.7 248.4 409 249.2 409.5C250.6 410.4 252.2 410.8 253.7 411.5C254.4 411.8 255 412.3 255.8 412.5C257.4 412.9 263.9 416.7 264.3 417C268.8 420.1 271.1 420.4 278.5 422.1C281.8 422.6 285.1 423.4 288.5 422.9C289.2 422.8 290 423.1 290.3 423.8C290.5 424.3 290.4 424.9 290.5 425.5C290.6 425.9 290.7 426.4 290.7 426.9C290.8 427.8 291.2 428.6 291.3 429.4C291.5 430.3 292.4 436.1 292.6 436.9C292.9 438.1 293.3 439.3 293.3 440.5C293.4 445.8 295.4 453.6 295.1 457.3C295 458.7 295.7 464.5 295.7 464.7C295.8 465.6 295.7 466.5 295.9 467.3C295.9 467.7 296.2 468 296.3 468.4C296.4 468.9 296.3 469.5 296.4 470.1C296.6 470.8 296.7 471.6 296.6 472.3C296.1 472.5 295.5 472.4 295.4 471.8C295.3 471.1 295.3 470.4 295 469.8C294.5 469.8 293.9 469.4 293.5 469.9C293.2 470.1 292.9 470.4 292.7 470.7C292.6 471.2 292.7 471.8 292.5 472.3C291.9 473.8 291.8 475.5 292 477C292 477.6 292.7 477.7 292.9 478.1C293.3 479.4 291.4 479.8 291.4 482.4C291.6 482.4 291.8 482.4 292 482.4C292.2 481.8 292.3 481.2 292.7 480.8C294 479.4 293.6 479.3 294.3 479.1C293.9 480 293.7 481.1 293.3 482C293 482.7 292.7 483.4 292.7 484.2C292.6 485.2 291.1 487.5 290.5 489.1C290.2 489.9 289.8 490.5 289.5 491.3C287.5 496.5 286.7 496 287 498.4C287.1 499.1 287.7 499.5 288.1 499.9C289.2 500.9 291.1 500.3 292.5 499.8C293.3 499.5 294.3 499.6 295.1 499.3C296.1 498.9 296.9 498.1 297.8 497.5C302.4 494.1 307.1 490.8 309.8 485.5C310.5 484.4 311.6 483.7 312.6 482.8C313.7 482 314.4 480.9 315.4 479.9C316.6 478.6 317.4 477.1 318.4 475.7C319 474.8 319.5 475.2 320.1 475.5C320.3 475 320.2 474 321.4 474.7C322.1 475.2 323 475.3 323.9 475.4C324.3 475.5 324.6 475.1 324.8 474.8C325.1 474.4 324.6 473.9 325 473.6C325.4 473.5 325.8 473.7 326.1 473.7C326.4 473.6 326.7 473.3 326.8 473C326.9 472.5 325.2 472.1 325.3 471C325.5 470.4 326.1 470.2 326.7 470.2C326.5 468.8 324 468.8 322.5 466.7C321.8 465.8 321.4 464.8 321 463.7C320.6 462.7 320.8 461.7 320.7 460.7C320.6 459 319.2 457.7 320.9 454.7C321.5 454.8 322.2 455.4 322.8 455.1C323.3 455 323.7 454.7 324.2 454.8C324.9 454.9 325.5 454.9 326.2 455C326.6 455.1 326.9 454.7 327.3 454.7C328.3 454.8 328.9 455.7 335.6 459.3C336.3 459.6 336.9 460.1 337.5 460.4C338.3 460.8 339.2 461.2 339.9 461.9C340.5 462.3 341.3 462.5 341.9 462.8C342.5 463 343 463.5 343.6 463.7C348 465.1 349.1 464.2 352.3 462.7C352.2 462.5 352 462.2 352.2 462C354.5 458.1 352.9 456.4 352.7 455.2C353.5 455.4 355.9 456.7 359.5 455.9C360.3 455.8 361 455.5 361.8 455.4C362.3 455.3 362.8 455.3 363.2 455C363.5 454.7 363.7 454.2 364.1 453.9C364.6 453.4 365.2 453.3 365.7 452.8C367.5 451.2 367.2 452.2 369.4 450.4C369.7 450.1 370.1 449.9 370.3 449.5C370.6 448.9 371.1 448.4 371.4 447.8C371.7 447.2 372.5 447.1 372.7 446.5C373.1 445.6 373.9 444.8 374.8 444.3C375.5 443.8 375.3 444.2 378.8 446.9C379.3 447.3 379.7 447.8 380.3 447.8C381.2 447.7 382 447.3 382.7 446.8C385.7 444.4 385.7 445.1 387.2 444.8C387.7 444.4 387.8 443.7 388.2 443.3C388.8 442.6 389.6 442.2 390.4 441.8C390.8 441.6 391 441.2 391.4 441.1C392.1 440.8 392.3 440.1 392.9 439.7C393.7 439.2 394.4 438.6 395 437.9C395.4 437.4 396.1 437.1 396.6 436.7C396.6 436.4 396.4 436.1 396.7 435.9C401.8 431.2 398.9 433.2 401.9 430.2C402.5 429.6 402.9 429 403.5 428.5C404 428 404.7 427.6 405 426.9C405.3 426.1 406.1 425.7 406.8 425.2C407.4 424.7 408.2 424.5 408.8 424.1C409.3 423.5 410 423 410.4 422.4C410.7 421.9 411.1 421.5 411.5 421.1C411.9 420.7 412.1 420.3 412.5 420C413 419.7 413.2 419.1 413.6 418.7C414.2 418 414.5 417.2 414.8 416.4C415 415.8 415.6 415.5 415.9 415C416.4 414.3 417.2 413.9 417.7 413.2C420 410.2 420.2 410 420.7 409.8C421.1 409.6 421.2 409.1 421.5 408.7C422.1 408.1 422.6 407.4 423.2 406.8C423.9 406.1 424.3 405.2 425 404.6C426.3 403.4 427.3 402 427.9 400.4C428.1 400 428.7 400 428.9 399.6C429.4 398.8 429.7 397.9 430.1 397C430.2 396.6 430.8 396.7 430.8 397.1C430.7 397.9 430.3 398.5 430.1 399.2C430.1 400.1 430.9 400.9 430.5 401.8C430.4 402.1 430 402.1 429.8 402C429.8 401.7 429.9 401.5 429.9 401.2C429.8 401.6 429.8 401.9 429.8 402.3C429.6 402.7 429.5 403.2 429.3 403.6C429.4 403.7 429.5 403.8 429.5 403.9C430.1 402.8 429.8 402.7 430.7 402.8C430.5 403.3 430.3 403.8 430.2 404.3C430.1 405 429.8 405.7 429.8 406.4C429.8 407 429.3 407.6 429.4 408.2C429.5 409.8 428.7 409.7 429 413.6C429 413.8 429.2 413.9 429.3 414C429.4 413.8 429.4 413.6 429.5 413.4C430.1 413.7 430.6 414.1 431.2 414.4C431 414.1 430.9 413.9 430.7 413.6C430.9 413.4 431 413.2 431.1 412.9C430.8 412.9 430.4 412.9 430.1 412.9C429.7 412.2 430.1 411.4 429.8 410.6C429.7 410.3 429.6 410.1 429.7 409.8C430.7 407.9 429.9 408.1 430.8 407.4C430.8 407.7 430.8 408 430.8 408.3C431.2 407.9 431.5 407.4 431.3 406.9C431.1 406.1 432.7 405 433.2 404C433.3 403.7 433.6 403.7 433.8 403.6C434 404.2 433.8 404.9 433.9 405.6C434.1 405.6 434.3 405.6 434.5 405.6C434 407 434.8 408.8 434.2 409.8C433.9 410.4 433.3 410.8 433.1 411.4C432.5 413.6 432.1 415.8 433.7 417.5C434.4 418.3 435.9 417.6 436.4 418.1C436.8 418.5 437.5 418.7 437.8 419.2C438 419.2 438.3 419.3 438.5 419.3C438.5 419.5 438.6 419.7 438.6 420C440.1 420.3 440.3 422.2 442.7 423.7C443.3 423.8 443.9 423.5 444.5 423.7C445.6 424.3 446.3 425.4 446.6 426.5C446.8 427 446.7 427.5 446.7 427.9C447.1 427.7 447.3 427.3 447.7 427C447.9 426.9 448.2 426.9 448.3 427.1C448.3 427.6 448.2 428 448.3 428.5C449 429.8 449.1 429 450.2 430.1C450.3 430.1 450.4 430 450.5 430C450.2 429.6 449.6 429.3 449.6 428.8C449.6 428.1 449.5 427.4 449.5 426.7C450.4 426.5 451.2 428.1 452.1 428.4C452.8 428.8 453.6 428.8 454.3 429.1C455 429.3 455.7 429.7 456.4 429.5C457.1 429.3 457.9 429.2 458.5 428.7C458 428.5 457.5 428.6 457.1 428.4C456.7 428.3 456.8 427.8 456.7 427.5C457.4 427.2 458.1 427.5 458.8 427.6C458.6 427.2 458.4 426.6 458 426.3C457.7 426.1 457.8 425.6 457.7 425.2C458.7 425.3 459.2 426.5 460.2 426.6C460.7 426.6 461 427 461.5 427C461.9 427 462.3 426.9 462.5 426.6C462.6 426.2 462.3 425.9 462.1 425.5C462.3 425 462.4 424.6 462.6 424.1C462.8 424 463 423.9 463.2 423.9C463.1 423.4 463 423 462.9 422.5C463.3 422.4 463.7 422.3 464.1 422.2C464 421.8 463.8 421.4 463.8 420.9C464 420.8 464.1 420.7 464.3 420.7C464.5 420.8 464.6 420.8 464.7 420.9C464.9 420.7 465.2 420.5 465.5 420.3C465.8 420.6 466 421 466.5 421.1C466.6 420.4 466.1 419.9 465.9 419.2C465.7 418.8 465.5 418.1 466 417.8C466.3 417.5 466.7 417.2 467.1 417.1C467 416.6 466.8 416.1 466.8 415.5C466.8 414.9 467.6 415 468 414.8C467.8 414.7 467.6 414.5 467.5 414.4C467.5 414.1 467.7 413.8 467.7 413.5C467.6 413.1 467.4 412.7 467.5 412.3C467.6 412.3 467.8 412.3 468 412.3C468 412.4 468.1 412.5 468.1 412.6C468.3 412.6 468.4 412.6 468.6 412.6C468.7 412.8 468.9 413 469.2 413.2C469.4 412.9 469.6 412.8 469.9 412.6C469.9 412.4 470 412.2 470 412.1C470.5 412 471 412 471.4 412C471.2 411.4 470.7 410.9 470.3 410.4C470.3 410 470.5 409.7 470.6 409.4C470.5 409.2 470.4 408.9 470.3 408.7C470.5 408.6 470.8 408.5 471 408.6C471.6 408.9 471.9 409.4 472.1 410C472.2 410.3 472.6 410.1 472.9 410.1C473 409.8 473 409.4 473 409.1C472.9 408.6 473.5 408.4 473.4 408zM239.3 386.9C238.8 386.7 238.3 386.5 237.8 386.3C237.8 385.9 238.1 385.4 238.6 385.5C239 385.8 239.4 386.4 239.3 386.9zM316.6 459.8C316.8 459.2 316.8 458.7 317 458.1C317.5 457.9 317.8 457.6 318.3 457.4C318.3 457.9 318.1 458.3 318.1 458.8C318 459.7 317.7 460.5 317.6 461.3C317.6 461.7 317.5 462 317.3 462.3C317.1 462.1 316.8 462 316.6 461.7C316.5 461 316.4 460.3 316.6 459.7zM317 471C316.1 470.8 315.7 469.8 314.9 469.4C314.1 469 313.6 468.2 312.9 467.7C312.2 467.3 310 466.2 309.3 465.5C309.1 464.5 309.3 463.4 309.3 462.3C309.3 461.9 309.7 461.6 309.8 461.2C309.8 460.7 309.2 460.4 309.3 459.9C309.5 459.1 309.2 458.2 309.5 457.4C309.5 456.4 309.6 455.5 309.5 454.5C310.3 450.6 309.6 451.4 309.7 450.3C309.8 449.9 310.3 449.8 310.4 449.4C310.5 449 310.2 448.7 310.1 448.4C310.2 448.1 310.4 447.9 310.3 447.6C310.2 447.1 310.2 446.7 310.2 446.2C310.4 446 310.7 445.8 310.6 445.5C310.5 445.1 310.6 444.7 310.8 444.3C311.7 444.5 312.3 445.3 313.2 445.7C314 445.9 314.4 446.6 315.1 447C315.6 447.2 315.5 447.8 315.5 448.3C315.1 449 315.3 449.8 315.8 450.3C316 451.1 315.4 451.9 314.8 452.2C314.4 452.2 314 452 313.6 451.8C313.5 451.8 313.3 451.9 313.2 451.9C313.2 452.1 313 452.4 313.2 452.6C313.4 453.1 314 453.1 314.2 453.6C314.3 454 314.3 454.5 314.1 454.9C313.9 455.3 313.9 455.7 313.6 456C313 456.4 313.4 457.2 313.1 457.8C312.8 458.3 312.5 458.9 312.4 459.5C312.3 459.8 312 460 312 460.4C311.8 461.2 311.3 461.9 311.3 462.8C312.3 462.9 312.1 462.4 313.7 461.2C313.9 461.1 314 460.8 314.2 460.6C314.6 460.2 314.9 459.6 315.5 459.3C315.7 460.1 315.3 460.7 315.3 461.5C315.1 462.2 315.5 467.6 316.4 469.7C316.6 470.2 317 470.6 317 471.1zM317.2 466.3C316.2 466.2 316.8 465.3 316.5 464.5C316.3 463.9 316.3 463.3 316.3 462.7C316.3 462.6 316.4 462.5 316.5 462.4C316.9 463.3 316.8 464.2 317.2 465.1C317.3 465.5 317.2 465.9 317.2 466.3zM317.3 471.2C317.4 471 317.7 471 317.9 471.1C318.1 471.2 318.1 471.5 318 471.7C317.9 471.9 317.6 471.9 317.4 471.8C317.2 471.7 317.2 471.4 317.3 471.2zM320.9 468.9C321.3 469.7 321.9 470.3 322.4 471C322.7 471.4 323.4 471.6 323.3 472.2C322.7 472.2 322.1 472 321.6 471.8C321.4 471.7 321.5 471.5 321.5 471.4C321 471.3 320.4 471 320.2 470.5C319.8 469.8 319.2 469.2 318.9 468.5C317 463.4 318.3 462 318.3 460.9C318.3 460.3 318.5 458.4 319.1 458.3C319.4 460.6 318.9 463.2 319.5 464.8C319.6 465.2 320.3 468 321 469zM343.1 363.9C343.4 363.9 343.7 363.9 343.9 364C344.8 364.5 345.6 365 346.4 365.7C346.6 365.8 346.5 366 346.5 366.2C345.9 366.2 345.3 365.9 344.7 366C344.1 366.1 343.5 365.7 343 365.4C342.9 364.9 343 364.4 343.1 364zM340.3 350.5C340.7 350 341.2 350.7 341.1 351.1C340.7 351 340.2 350.9 340.3 350.5zM368.3 399.3C367.8 399.8 367.4 400.4 366.9 401C366.3 401.7 365.6 402.4 365.4 403.3C365.2 403.9 364.9 404.5 364.6 405.1C364.4 405.6 364.4 406.1 364.3 406.6C363.9 407.5 362.9 407.7 362.3 408.4C361.6 409 361.6 410.1 360.9 410.8C358.6 413.4 358.3 413.8 357.6 413.8C354 414.7 354.3 417.2 353.8 418.1C353.6 418.4 353.4 418.6 353.3 419C352.6 419.1 352.3 418.5 351.7 418.3C349.4 417.6 349.5 419.1 348.4 419.4C346.9 419.8 347.2 418.7 346.6 418.2C346.1 418.1 345.6 418.3 345.2 418C344.8 417.8 344.2 417.6 343.8 417.3C343.4 417.1 343.1 416.8 342.6 416.7C341.8 416.5 341.2 416.1 340.4 416C339.6 415.9 338.8 415.4 338 415.3C337 415.1 340.1 401.3 341.7 391.8C342.1 389.3 342.8 381.7 343.4 381.1C343.9 381.2 344.4 381.3 344.9 381.4C345.5 381.4 346 381.8 346.3 382.3C346.4 383.3 346.9 384.2 347.5 385C347.9 385.8 350.5 385.9 351.5 387.4C352.1 388.5 353.5 388.6 354.5 389.1C355.2 389.5 358.2 391.9 359.2 392.4C360.1 392.9 361 393.6 361.9 394.1C362.6 394.5 363.2 395.1 363.9 395.4C366.7 396.9 366.2 397.3 367.2 398.2C367.7 398.5 368.2 398.6 368.7 398.8C368.6 399.1 368.5 399.3 368.2 399.5zM372.3 384.1C371.9 383.7 371.4 383.7 370.9 383.6C370.1 383 369.1 382.8 368.4 382.1C366.9 380.9 364.2 380.1 360.3 378C359.5 377.4 358.8 376.5 357.7 376.3C357.1 376.1 356.5 376.3 355.9 376C355.1 375.6 354.4 375.1 353.6 374.6C351.7 373.7 351.1 374 350.9 373.2C350.7 372.5 350.2 371.9 349.5 371.7C349 371.5 348.5 371.8 348.2 370.7C348.1 370.1 347.8 369.5 347.7 368.9C347.8 368.8 347.9 368.7 347.9 368.6C349.3 368.9 351.4 371 352.3 372C352.9 372.7 354 372.7 354.8 373.1C355.3 373.4 355.7 373.7 356.2 374C357.2 374.6 358.5 374.7 359.4 375.5C359.9 375.9 360.5 376.2 361.1 376.5C367.2 380.8 366.6 380 368.6 381.2C371.5 383.2 369.9 381.7 371.9 383.3C372.5 383.7 373.3 384 373.6 384.7C373.1 385 372.5 384.6 372.2 384.2zM448.5 426.3C448.4 426.5 448.1 426.5 448 426.3C448 425.9 448.1 425.6 448.3 425.3C448.4 425.1 449.2 424.9 448.5 426.3zM469.5 405.5C468.9 405.1 468.6 404.4 468.4 403.8C468.3 403.6 468.4 403.5 468.5 403.3C468.6 403.3 468.8 403.3 468.9 403.3C469.4 403.8 469.8 404.4 470.1 405.1C470.3 405.6 470.6 406 470.7 406.6C470 406.7 470 405.8 469.5 405.5zM470 403.3C469.7 402.3 469 401.3 469.1 400.2C469.3 400.2 469.5 400.2 469.7 400.2C470 400.7 470.3 401.2 470.6 401.7C470.7 402 470.5 402.2 470.4 402.4C470.5 402.4 470.7 402.5 470.8 402.5C470.7 402.9 470.8 403.3 471.1 403.7C471.6 404.2 470.8 405.5 470.1 403.3zM471.1 405.4C471.4 405.3 471.6 405.6 471.8 405.8C472 406.1 472 406.5 472 406.9C471.6 406.7 471.7 407.1 471.1 405.4zM473 403.6C473 403.8 472.9 404 472.7 404C472.4 404.1 472.3 403.7 472.1 403.5C471.7 402.8 470.9 402.1 470.9 401.2C470.8 400.2 470.4 399.4 470.3 398.4C470.5 398.3 470.8 398.3 471 398.5C471.6 399.2 471.9 400.1 472.3 401C472.6 401.8 473.1 402.6 473 403.5zM473 403.6z"/></svg>
